<svg width="3557" height="800" viewBox="0 0 3557 800" fill="none" xmlns="http://www.w3.org/2000/svg">
<path d="M816 180.007H973.942C997.957 179.844 1021.91 182.544 1045.28 188.048C1065.78 192.655 1085.33 200.758 1103.07 212.001C1118.9 222.093 1132.12 235.774 1141.67 251.934C1151.28 268.874 1156.13 288.1 1155.7 307.573C1156.16 327.125 1151.37 346.443 1141.84 363.52C1132.68 379.377 1120.13 393.013 1105.09 403.452C1089.25 414.442 1071.6 422.55 1052.95 427.405C1033.38 432.643 1013.22 435.278 992.966 435.241H927.579V633.057H816V180.007ZM927.579 394.213H964.019C975.425 394.48 986.741 392.139 997.106 387.37C1006.21 382.982 1014.2 376.581 1020.48 368.652C1026.83 360.49 1031.59 351.203 1034.5 341.278C1037.66 330.768 1039.24 319.847 1039.19 308.873C1039.42 296.557 1037.32 284.308 1033 272.773C1029.26 262.894 1023.59 253.864 1016.3 246.219C1009.33 238.999 1000.89 233.352 991.563 229.658C981.834 225.83 971.462 223.902 961.008 223.977H927.579V394.213Z" fill="white"/>
<path d="M1466.65 362.8C1461.95 358.785 1457.67 355.363 1453.79 352.534C1450.18 349.824 1446.32 347.475 1442.26 345.519C1438.49 343.748 1434.51 342.46 1430.42 341.687C1425.83 340.867 1421.18 340.477 1416.53 340.523C1409.37 340.508 1402.26 341.664 1395.48 343.945C1388.62 346.283 1382.11 349.54 1376.12 353.629C1370.14 357.731 1364.69 362.559 1359.9 368.001C1355.27 373.226 1351.49 379.15 1348.71 385.555V633.158H1245.04V322.046L1317.54 283.926L1348.61 317.358C1359.57 305.84 1372.39 296.24 1386.52 288.957C1400.1 281.894 1415.18 278.219 1430.49 278.246C1444.5 278.042 1458.36 281.198 1470.9 287.451C1482.08 293.018 1492.61 299.8 1502.31 307.674L1466.65 362.8Z" fill="white"/>
<path d="M1703.12 639.49C1677.42 639.745 1651.89 635.208 1627.85 626.11C1605.74 617.795 1585.44 605.319 1568.04 589.36C1551.3 573.906 1537.89 555.208 1528.62 534.405C1519.04 512.873 1514.2 489.534 1514.42 465.968C1514.14 441.027 1518.98 416.292 1528.62 393.289C1537.66 371.709 1551.01 352.205 1567.87 335.973C1585.06 319.61 1605.33 306.817 1627.5 298.333C1651.52 289.142 1677.06 284.557 1702.78 284.817C1728.54 284.566 1754.14 289.031 1778.29 297.991C1800.4 306.176 1820.76 318.485 1838.27 334.262C1855 349.51 1868.46 367.982 1877.86 388.567C1887.51 409.696 1892.41 432.681 1892.23 455.908C1892.36 479.975 1887.67 503.825 1878.46 526.058C1869.25 548.292 1855.69 568.464 1838.58 585.39C1821.32 602.282 1800.95 615.669 1778.6 624.81C1754.67 634.694 1729.01 639.685 1703.12 639.49V639.49ZM1715.17 597.709C1724.64 597.669 1733.82 594.439 1741.24 588.538C1749.78 581.774 1756.88 573.361 1762.11 563.798C1768.35 552.531 1772.96 540.434 1775.8 527.869C1779.08 513.966 1780.71 499.724 1780.66 485.439C1780.75 464.808 1779.13 444.206 1775.8 423.846C1773.11 406.267 1767.76 389.201 1759.92 373.237C1753.32 359.633 1743.53 347.824 1731.38 338.813C1718.81 330.073 1703.75 325.622 1688.44 326.118C1679.73 326.299 1671.34 329.477 1664.7 335.118C1656.53 341.845 1649.73 350.068 1644.65 359.344C1638.57 370.397 1633.96 382.2 1630.96 394.452C1627.39 408.161 1625.6 422.272 1625.62 436.438C1625.51 457.434 1627.58 478.384 1631.78 498.955C1635.29 516.8 1641.26 534.074 1649.5 550.282C1656.27 563.731 1665.84 575.573 1677.56 585.014C1688.28 593.415 1701.55 597.895 1715.17 597.709V597.709Z" fill="white"/>
<path d="M1933.02 333.783V309.386L1988.14 291.01V221.445L2060.68 183.223H2091.75V290.805H2175.61V333.783H2091.75V554.012C2091.6 560.433 2093.47 566.738 2097.09 572.045C2098.57 574.423 2100.64 576.38 2103.09 577.728C2105.55 579.076 2108.31 579.77 2111.11 579.744C2115.32 579.553 2119.41 578.28 2122.99 576.049C2127.36 573.597 2131.49 570.745 2135.34 567.529C2139 564.503 2142.43 561.209 2145.6 557.674C2148.62 554.252 2150.77 551.788 2152.11 550.009L2187.52 578.068C2181.83 586.852 2175.47 595.181 2168.49 602.979C2161.55 610.683 2153.55 617.376 2144.75 622.859C2135.17 628.708 2124.8 633.145 2113.95 636.034C2100.87 639.466 2087.38 641.101 2073.85 640.893C2061.03 641.161 2048.27 639.061 2036.22 634.699C2026.15 631.022 2017.02 625.182 2009.46 617.59C2002.24 610.085 1996.77 601.075 1993.45 591.208C1989.73 580.188 1987.91 568.617 1988.07 556.989V333.783H1933.02Z" fill="white"/>
<path d="M2398.8 640.824C2375.3 640.921 2352.03 636.266 2330.37 627.136C2309.68 618.579 2290.76 606.231 2274.6 590.728C2258.8 575.556 2246.03 557.523 2236.96 537.587C2227.74 517.52 2223.01 495.683 2223.1 473.599C2222.87 448.113 2227.16 422.787 2235.76 398.798C2243.7 376.614 2255.96 356.225 2271.83 338.813C2287.49 321.825 2306.57 308.334 2327.81 299.222C2371.95 281.322 2421.13 280.311 2465.97 296.382C2484.81 303.344 2502.13 313.896 2516.95 327.453C2531.01 340.488 2542.2 356.3 2549.83 373.887C2557.68 391.887 2561.67 411.328 2561.57 430.963H2324.62C2325.41 449.271 2328.27 467.431 2333.14 485.096C2337.4 501.011 2343.88 516.25 2352.37 530.367C2359.59 542.535 2369.19 553.116 2380.6 561.471C2391.05 569.03 2403.63 573.069 2416.53 573.003C2427.97 572.989 2439.32 571.01 2450.09 567.152C2471.88 559.492 2490.98 545.681 2505.08 527.39C2511.84 518.642 2516.93 508.725 2520.1 498.133L2572.9 506.483C2567.44 525.209 2558.8 542.852 2547.34 558.631C2535.76 574.775 2521.93 589.178 2506.28 601.404C2490.72 613.559 2473.42 623.296 2454.95 630.285C2437.04 637.2 2418.01 640.772 2398.8 640.824V640.824ZM2442.6 395.547C2441.84 386.074 2439.64 376.774 2436.07 367.967C2432.91 360.088 2428.44 352.799 2422.86 346.409C2417.66 340.47 2411.24 335.725 2404.03 332.5C2396.82 329.275 2389.01 327.647 2381.11 327.726C2374.46 327.767 2367.92 329.423 2362.06 332.551C2355.59 335.965 2349.86 340.616 2345.19 346.238C2339.85 352.649 2335.56 359.868 2332.49 367.625C2328.89 376.546 2326.59 385.937 2325.65 395.513L2442.6 395.547Z" fill="white"/>
<path d="M2755.68 290.941V532.249C2755.64 538.759 2757.01 545.201 2759.68 551.138C2762.27 556.919 2765.97 562.138 2770.56 566.501C2780.09 575.467 2792.72 580.376 2805.8 580.189C2810.26 580.043 2814.65 578.971 2818.67 577.041C2823.9 574.66 2828.83 571.686 2833.38 568.178C2838.68 564.12 2843.64 559.646 2848.23 554.799C2853.12 549.681 2857.49 544.087 2861.27 538.1V290.941H2964.84V633.124H2861.27V601.404C2848.06 612.576 2833.4 621.9 2817.68 629.121C2803.6 635.727 2788.27 639.228 2772.72 639.386C2756.51 639.517 2740.41 636.627 2725.26 630.866C2711.21 625.566 2698.25 617.751 2687 607.803C2676.28 598.22 2667.59 586.585 2661.45 573.585C2655.27 560.682 2652.08 546.554 2652.1 532.249V290.941H2755.68Z" fill="white"/>
<path d="M3101.84 537.553C3107.86 556.281 3116.5 570.824 3127.74 581.181C3139.28 591.647 3154.43 597.218 3170 596.716C3176.62 596.788 3183.21 595.889 3189.57 594.047C3195.09 592.441 3200.29 589.894 3204.94 586.519C3209.05 583.565 3212.47 579.746 3214.96 575.33C3217.25 571.134 3218.43 566.422 3218.38 561.642C3218.5 554.224 3216.97 546.872 3213.9 540.119C3210.81 533.686 3206.55 527.885 3201.34 523.01C3195.57 517.555 3189.19 512.789 3182.32 508.809C3174.64 504.294 3166.71 500.216 3158.57 496.593C3144.89 490.571 3131.42 484.058 3118.16 477.055C3105.3 470.396 3093.2 462.365 3082.07 453.102C3071.67 444.453 3062.9 434.026 3056.16 422.305C3049.42 410.044 3046.02 396.225 3046.31 382.236C3046.14 368.498 3049.23 354.916 3055.34 342.611C3061.4 330.646 3070.08 320.202 3080.73 312.054C3092.46 303.155 3105.71 296.475 3119.84 292.344C3136.1 287.562 3152.99 285.254 3169.93 285.501C3184.89 285.299 3199.82 286.861 3214.41 290.154C3226.42 292.882 3237.96 297.392 3248.63 303.534C3258.35 309.239 3267.14 316.393 3274.7 324.749C3282.54 333.396 3289.42 342.86 3295.23 352.979L3235.08 373.715C3232.81 364.643 3228.96 356.038 3223.72 348.291C3219.96 342.878 3215.2 338.232 3209.69 334.604C3205.34 331.79 3200.44 329.914 3195.32 329.095C3191.23 328.468 3187.1 328.137 3182.97 328.103C3176.77 328.072 3170.59 328.795 3164.56 330.258C3159.16 331.549 3153.98 333.637 3149.2 336.452C3144.96 338.922 3141.32 342.284 3138.52 346.307C3135.79 350.34 3134.39 355.126 3134.52 359.994C3134.51 366.456 3136.23 372.803 3139.51 378.369C3143.18 384.57 3147.94 390.063 3153.54 394.589C3160.14 399.996 3167.24 404.751 3174.76 408.789C3183.39 413.479 3192.27 417.716 3201.34 421.484C3215.83 427.507 3229.91 434.191 3243.6 441.536C3256.62 448.302 3268.86 456.472 3280.11 465.899C3290.37 474.627 3299.08 485.042 3305.84 496.696C3312.36 508.157 3315.7 521.151 3315.52 534.336C3315.65 548.582 3313.17 562.73 3308.2 576.082C3303.17 589.171 3294.94 600.785 3284.25 609.856C3271.69 620.263 3257.13 627.995 3241.48 632.577C3220.81 638.586 3199.35 641.402 3177.84 640.926C3159.46 641.349 3141.14 638.866 3123.54 633.569C3110.05 629.356 3097.34 622.977 3085.9 614.681C3076.12 607.455 3067.55 598.724 3060.51 588.812C3054.1 579.665 3048.19 570.172 3042.82 560.376L3101.84 537.553Z" fill="white"/>
<path d="M3376.84 594.389C3376.79 588.257 3377.95 582.176 3380.26 576.493C3382.49 570.959 3385.85 565.949 3390.11 561.779C3394.35 557.67 3399.27 554.335 3404.65 551.924C3410.28 549.45 3416.37 548.202 3422.51 548.263C3428.77 548.227 3434.96 549.473 3440.72 551.924C3446.2 554.248 3451.19 557.592 3455.43 561.779C3459.63 566.004 3462.98 571 3465.28 576.493C3468.91 584.892 3469.91 594.192 3468.15 603.171C3466.4 612.149 3461.96 620.385 3455.43 626.794C3451.19 630.885 3446.19 634.115 3440.72 636.306C3434.93 638.63 3428.75 639.792 3422.51 639.728C3416.39 639.816 3410.31 638.652 3404.65 636.306C3399.28 634.03 3394.35 630.809 3390.11 626.794C3385.85 622.756 3382.49 617.857 3380.26 612.422C3377.93 606.698 3376.77 600.568 3376.84 594.389V594.389Z" fill="white"/>
<circle cx="399.5" cy="398.811" r="257.5" fill="#BDBED3" fill-opacity="0.4"/>
<path d="M397 797L395 1L290.87 677.225" fill="#E427C6"/>
<path d="M397 797L395 1L502.229 676.857" fill="#FF54E4"/>
<path d="M489.259 691.639L631 127L442.94 588.631" fill="#F03B3B"/>
<path d="M489.259 691.638L631 127L581.132 624.423" fill="#FF8282"/>
<path d="M304.508 691.639L163 128L213.955 624.332" fill="#A300BB"/>
<path d="M304.508 691.639L163 128L352.396 589.173" fill="#D846ED"/>
</svg>
